<?xml version="1.0" encoding="utf-8" ?>
<svg xmlns="http://www.w3.org/2000/svg" xmlns:xlink="http://www.w3.org/1999/xlink" width="32" height="32">
	<path fill="#037DB3" transform="scale(0.03125 0.03125)" d="M0 0L1024 0L1024 1024L0 1024L0 0Z"/>
	<path fill="#04162A" transform="scale(0.03125 0.03125)" d="M500.487 95.2299Q504.434 95.1051 508.384 95.0613Q512.333 95.0174 516.282 95.0546Q520.231 95.0917 524.179 95.2097Q528.127 95.3278 532.071 95.5267Q536.015 95.7257 539.955 96.0054Q543.894 96.2852 547.827 96.6457Q551.76 97.0061 555.685 97.4471Q559.609 97.8881 563.524 98.4094Q567.439 98.9308 571.342 99.5322Q575.246 100.134 579.136 100.815Q583.026 101.496 586.902 102.257Q590.777 103.018 594.636 103.859Q598.495 104.699 602.336 105.618Q606.177 106.537 609.998 107.535Q613.819 108.532 617.62 109.608Q621.42 110.684 625.197 111.838Q628.974 112.991 632.727 114.222Q636.48 115.452 640.206 116.76Q643.933 118.067 647.632 119.45Q651.331 120.834 655.001 122.293Q658.672 123.752 662.311 125.286Q665.95 126.819 669.557 128.428Q673.165 130.036 676.738 131.718Q680.311 133.399 683.85 135.154Q687.388 136.909 690.889 138.735Q694.391 140.562 697.854 142.46Q701.318 144.359 704.741 146.327Q708.165 148.296 711.548 150.335Q714.93 152.373 718.27 154.481Q721.61 156.588 724.907 158.764Q728.203 160.939 731.454 163.182Q734.705 165.424 737.909 167.733Q741.71 170.475 745.441 173.31Q749.173 176.146 752.833 179.072Q756.493 181.999 760.08 185.016Q763.666 188.032 767.177 191.137Q770.688 194.241 774.121 197.432Q777.553 200.623 780.906 203.897Q784.259 207.172 787.529 210.528Q790.8 213.885 793.986 217.322Q797.173 220.758 800.273 224.273Q803.374 227.787 806.386 231.377Q809.398 234.968 812.321 238.631Q815.243 242.295 818.074 246.03Q820.905 249.765 823.642 253.569Q826.38 257.373 829.022 261.243Q831.664 265.114 834.21 269.049Q836.756 272.984 839.203 276.98Q841.651 280.977 843.998 285.033Q846.346 289.089 848.592 293.202Q850.839 297.315 852.983 301.483Q855.127 305.65 857.167 309.869Q859.207 314.088 861.142 318.357Q863.077 322.625 864.905 326.94Q866.734 331.255 868.455 335.615Q870.176 339.974 871.789 344.374Q873.401 348.774 874.905 353.213Q876.408 357.652 877.801 362.127Q879.193 366.602 880.475 371.11Q881.756 375.618 882.926 380.156Q884.095 384.694 885.152 389.26Q886.208 393.826 887.152 398.417Q888.095 403.007 888.924 407.62Q889.753 412.232 890.468 416.864Q891.468 423.034 892.263 429.235Q893.058 435.435 893.647 441.658Q894.236 447.881 894.618 454.121Q895 460.36 895.175 466.608Q895.351 472.857 895.318 479.108Q895.286 485.359 895.047 491.605Q894.808 497.851 894.361 504.086Q893.915 510.321 893.262 516.538Q892.61 522.755 891.751 528.947Q890.892 535.138 889.829 541.298Q888.766 547.458 887.499 553.579Q886.232 559.701 884.762 565.776Q883.293 571.852 881.623 577.876Q879.953 583.9 878.085 589.865Q876.216 595.83 874.15 601.73Q872.085 607.63 869.825 613.458C866.586 621.776 862.666 629.896 858.923 637.999C850.763 655.661 841.823 673.458 830.428 689.281C830.053 713.938 830.17 738.652 830.117 763.316C830.094 773.958 831.228 790.075 829.207 800.179C828.033 806.048 825.196 811.24 821.166 815.643C816.073 821.208 809.151 825.394 803.09 829.883C795.49 835.512 788.051 841.268 780.227 846.595Q776.726 849.013 773.182 851.367Q769.637 853.721 766.051 856.011Q762.465 858.301 758.838 860.525Q755.211 862.75 751.544 864.908Q747.877 867.067 744.172 869.159Q740.467 871.251 736.725 873.276Q732.983 875.301 729.205 877.258Q725.427 879.215 721.614 881.103Q717.801 882.991 713.954 884.81Q710.108 886.63 706.229 888.379Q702.351 890.128 698.441 891.807Q694.532 893.486 690.592 895.094Q686.653 896.702 682.685 898.239Q678.718 899.775 674.723 901.24Q670.728 902.705 666.707 904.097Q662.687 905.489 658.642 906.809Q654.596 908.128 650.528 909.374Q646.46 910.62 642.37 911.793Q638.279 912.965 634.169 914.064Q630.058 915.162 625.928 916.186Q621.798 917.21 617.651 918.159Q613.503 919.108 609.339 919.982Q605.175 920.856 600.996 921.655Q596.816 922.453 592.623 923.176Q588.43 923.899 584.225 924.546Q580.02 925.194 575.803 925.765Q571.587 926.336 567.361 926.83Q563.135 927.325 558.901 927.744Q554.666 928.162 550.425 928.504Q546.184 928.846 541.937 929.111Q537.691 929.376 533.44 929.564Q529.189 929.753 524.936 929.864Q518.968 930.053 512.999 930.164C461.843 930.961 407.246 921.966 358.905 905.229C322.63 892.67 285.633 874.32 253.108 854.008Q234.373 842.388 216.922 828.915C212.363 825.43 207.567 822.015 203.474 817.983C199.399 813.968 196.254 809.008 194.937 803.419C192.295 792.202 193.627 773.139 193.64 761.256Q193.818 723.562 193.529 685.869Q191.694 683.187 189.906 680.474Q188.118 677.76 186.379 675.015Q184.64 672.27 182.949 669.495Q181.259 666.719 179.618 663.914Q177.977 661.109 176.385 658.276Q174.794 655.443 173.254 652.581Q171.713 649.72 170.223 646.832Q168.733 643.944 167.295 641.03Q165.856 638.116 164.47 635.177Q163.083 632.238 161.749 629.275Q160.415 626.312 159.133 623.326Q157.851 620.34 156.623 617.331Q155.394 614.323 154.219 611.293Q153.044 608.263 151.922 605.213Q150.801 602.163 149.734 599.094Q148.667 596.024 147.654 592.936Q146.642 589.848 145.684 586.743Q144.726 583.638 143.824 580.516Q142.921 577.394 142.074 574.257Q141.227 571.12 140.435 567.968Q139.644 564.816 138.908 561.651Q138.173 558.485 137.493 555.307Q136.814 552.13 136.191 548.94Q135.568 545.751 135.001 542.551Q134.435 539.351 133.925 536.142Q133.415 532.932 132.963 529.714Q132.51 526.496 132.114 523.271Q131.718 520.045 131.38 516.813Q131.041 513.581 130.76 510.344Q130.479 507.107 130.255 503.865Q130.031 500.623 129.864 497.377Q129.698 494.132 129.589 490.884Q129.4 486.196 129.328 481.504Q129.255 476.813 129.298 472.121Q129.342 467.429 129.501 462.739Q129.66 458.05 129.935 453.366Q130.21 448.682 130.601 444.006Q130.992 439.33 131.498 434.665Q132.005 430.001 132.626 425.35Q133.247 420.699 133.984 416.065Q134.72 411.431 135.57 406.817Q136.421 402.202 137.385 397.61Q138.349 393.018 139.427 388.452Q140.504 383.885 141.694 379.346Q142.884 374.808 144.186 370.3Q145.488 365.792 146.901 361.317Q148.314 356.843 149.837 352.405Q151.36 347.967 152.992 343.568Q154.624 339.169 156.365 334.811Q158.105 330.454 159.953 326.141Q161.801 321.828 163.754 317.562Q165.708 313.296 167.767 309.079Q169.825 304.863 171.987 300.699Q174.149 296.534 176.414 292.425Q178.678 288.315 181.043 284.263Q183.409 280.211 185.873 276.218Q188.338 272.225 190.901 268.295Q193.463 264.364 196.122 260.498Q198.781 256.633 201.535 252.833Q204.289 249.034 207.136 245.305Q209.983 241.575 212.921 237.916Q215.859 234.258 218.887 230.673Q221.914 227.089 225.03 223.58Q228.145 220.072 231.346 216.641Q234.567 213.165 237.873 209.77Q241.18 206.376 244.57 203.065Q247.96 199.754 251.432 196.528Q254.904 193.303 258.456 190.166Q262.007 187.028 265.636 183.98Q269.265 180.933 272.969 177.977Q276.672 175.02 280.449 172.158Q284.225 169.295 288.072 166.527Q291.919 163.76 295.834 161.089Q299.748 158.419 303.729 155.847Q307.709 153.275 311.752 150.803Q315.795 148.332 319.899 145.962Q324.003 143.592 328.164 141.325Q332.326 139.059 336.543 136.897Q340.76 134.735 345.029 132.679Q349.299 130.623 353.619 128.674Q357.938 126.726 362.305 124.885Q366.672 123.045 371.084 121.315Q375.496 119.584 379.949 117.965Q384.403 116.345 388.895 114.837Q393.388 113.329 397.917 111.934Q402.445 110.539 407.008 109.257Q411.57 107.975 416.163 106.808Q420.756 105.641 425.376 104.589Q429.997 103.537 434.642 102.6Q439.288 101.664 443.955 100.844Q448.622 100.024 453.309 99.3203Q457.995 98.6171 462.698 98.0312Q467.4 97.4452 472.116 96.9769Q476.831 96.5087 481.557 96.1584Q486.283 95.808 491.016 95.5759Q495.749 95.3437 500.487 95.2299Z"/>
	<path fill="#F9C51E" transform="scale(0.03125 0.03125)" d="M506.456 113.75C520.896 112.911 535.527 114.077 549.879 115.623Q555.274 116.174 560.65 116.886Q566.026 117.597 571.379 118.468Q576.731 119.34 582.056 120.37Q587.38 121.4 592.671 122.588Q597.962 123.777 603.216 125.122Q608.469 126.467 613.68 127.968Q618.892 129.469 624.056 131.125Q629.22 132.78 634.332 134.589Q639.445 136.397 644.501 138.357Q649.558 140.317 654.554 142.427Q659.55 144.536 664.48 146.794Q669.411 149.051 674.273 151.454Q679.134 153.857 683.922 156.404Q688.71 158.951 693.419 161.639Q698.129 164.328 702.757 167.155Q707.385 169.982 711.926 172.946Q715.671 175.386 719.355 177.917Q723.039 180.448 726.659 183.069Q730.28 185.69 733.834 188.4Q737.389 191.11 740.875 193.906Q744.362 196.703 747.779 199.584Q751.195 202.466 754.54 205.431Q757.884 208.396 761.155 211.443Q764.425 214.49 767.619 217.616Q770.814 220.742 773.93 223.946Q777.046 227.151 780.082 230.431Q783.119 233.711 786.073 237.065Q789.027 240.419 791.898 243.844Q794.769 247.27 797.554 250.766Q800.34 254.261 803.038 257.824Q805.737 261.388 808.346 265.016Q810.956 268.645 813.476 272.337Q815.995 276.029 818.423 279.781Q820.85 283.534 823.185 287.346Q825.519 291.158 827.758 295.026Q829.998 298.894 832.142 302.816Q834.285 306.738 836.331 310.712Q838.378 314.685 840.325 318.708Q842.273 322.731 844.12 326.801Q845.968 330.871 847.715 334.985Q849.462 339.099 851.107 343.255Q852.751 347.411 854.293 351.606Q855.835 355.802 857.273 360.034Q858.711 364.266 860.044 368.532Q861.377 372.798 862.605 377.096Q863.832 381.394 864.953 385.72Q866.074 390.047 867.089 394.4Q868.103 398.753 869.009 403.13Q870.961 412.57 872.39 422.103Q873.82 431.635 874.722 441.232Q875.625 450.83 875.997 460.462Q876.37 470.094 876.212 479.732C876.124 491.427 875.882 503.295 874.694 514.935C873.443 527.197 871.077 539.367 868.445 551.399C857.843 599.861 839.083 640.888 811.987 682.238C812.364 706.419 812.031 730.656 812.056 754.843C812.066 765.4 813.211 785.647 811.234 795.301C810.494 798.916 808.642 801.402 806.102 804.007C799.56 810.714 786.665 819.313 778.759 825.254C704.388 881.143 608.452 910.181 515.875 911.602C457.967 912.99 397.945 900.906 344.177 879.591C329.44 873.748 315.098 866.786 300.95 859.646C269.637 843.844 239.616 825.037 213.183 801.87C212.058 790.531 212.646 778.706 212.681 767.307Q212.87 737.324 212.706 707.34C212.65 700.547 213.488 687.994 211.907 681.751C210.057 674.449 203.71 667.059 199.74 660.69Q194.449 652.208 189.717 643.402Q187.337 639.014 185.084 634.559Q182.831 630.105 180.707 625.587Q178.583 621.069 176.59 616.492Q174.598 611.916 172.737 607.283Q170.877 602.651 169.151 597.967Q167.424 593.283 165.834 588.551Q164.243 583.82 162.789 579.044Q161.335 574.268 160.019 569.453Q158.703 564.638 157.526 559.786Q156.35 554.935 155.313 550.052Q154.276 545.169 153.38 540.258Q152.485 535.347 151.731 530.412Q150.977 525.478 150.365 520.523Q149.753 515.569 149.284 510.599Q148.815 505.629 148.49 500.648Q148.164 495.667 147.982 490.678Q147.79 486.215 147.709 481.748Q147.629 477.281 147.659 472.813Q147.69 468.346 147.831 463.881Q147.973 459.415 148.226 454.955Q148.478 450.495 148.842 446.042Q149.206 441.589 149.68 437.147Q150.154 432.704 150.739 428.275Q151.324 423.846 152.019 419.433Q152.714 415.02 153.518 410.625Q154.323 406.231 155.236 401.858Q156.15 397.485 157.172 393.135Q158.195 388.786 159.325 384.464Q160.455 380.142 161.692 375.849Q162.93 371.556 164.273 367.296Q165.617 363.035 167.067 358.809Q168.516 354.583 170.07 350.395Q171.624 346.206 173.282 342.058Q174.94 337.909 176.701 333.803Q178.462 329.697 180.324 325.636Q182.186 321.575 184.149 317.562Q186.112 313.549 188.174 309.586Q190.236 305.623 192.397 301.712Q194.557 297.801 196.813 293.946Q199.07 290.09 201.422 286.292Q203.774 282.494 206.22 278.755Q208.666 275.016 211.204 271.34Q213.742 267.663 216.371 264.051Q219 260.439 221.718 256.893Q224.436 253.348 227.242 249.871Q230.047 246.394 232.938 242.988Q235.829 239.582 238.804 236.249Q241.779 232.916 244.836 229.658Q247.232 227.056 249.679 224.502Q252.126 221.948 254.623 219.443Q257.12 216.938 259.667 214.482Q262.213 212.027 264.808 209.623Q267.402 207.219 270.044 204.867Q272.685 202.514 275.373 200.215Q278.06 197.915 280.793 195.669Q283.526 193.424 286.302 191.232Q289.079 189.041 291.899 186.905Q294.718 184.769 297.579 182.69Q300.441 180.61 303.343 178.588Q306.245 176.566 309.186 174.601Q312.127 172.636 315.107 170.731Q318.087 168.825 321.104 166.978Q324.121 165.132 327.174 163.345Q330.227 161.559 333.314 159.833Q336.402 158.108 339.523 156.444Q342.645 154.78 345.798 153.178Q348.952 151.576 352.137 150.037Q355.321 148.498 358.536 147.023Q361.751 145.547 364.994 144.135Q368.237 142.724 371.508 141.376Q374.778 140.029 378.075 138.747Q381.371 137.465 384.693 136.249Q388.014 135.032 391.359 133.882Q394.704 132.731 398.071 131.647Q401.438 130.563 404.826 129.546Q408.213 128.529 411.621 127.579Q415.028 126.63 418.453 125.747Q421.879 124.865 425.321 124.051Q428.763 123.237 432.221 122.492Q435.678 121.746 439.15 121.069C461.425 116.705 483.802 114.654 506.456 113.75Z"/>
	<path fill="#04162A" transform="scale(0.03125 0.03125)" d="M497.982 151.219Q507.96 150.906 517.942 151.06C605.516 152.162 687.858 189.719 748.678 252.194C757.141 260.887 764.635 270.423 771.992 280.053C818.348 340.725 837.765 409.802 836.561 485.606C835.307 564.547 800.925 647.025 744.022 702.084C683.896 760.262 599.592 797.522 515.375 796.179C488.605 795.648 462.793 792.271 436.684 786.361C374.893 772.372 329.922 748.312 283.339 705.28C267.755 690.883 254.445 674.02 242.672 656.421Q241.067 654.056 239.504 651.662Q237.94 649.269 236.419 646.849Q234.898 644.429 233.42 641.982Q231.942 639.536 230.506 637.063Q229.071 634.591 227.679 632.094Q226.288 629.598 224.94 627.077Q223.592 624.556 222.289 622.012Q220.986 619.467 219.727 616.901Q218.469 614.334 217.255 611.746Q216.042 609.158 214.874 606.548Q213.707 603.939 212.585 601.31Q211.463 598.681 210.388 596.032Q209.312 593.384 208.283 590.717Q207.254 588.05 206.272 585.365Q205.29 582.681 204.356 579.979Q203.421 577.278 202.534 574.561Q201.646 571.843 200.807 569.111Q199.967 566.378 199.176 563.632Q198.384 560.885 197.641 558.125Q196.898 555.364 196.204 552.591Q195.509 549.819 194.863 547.034Q194.217 544.249 193.62 541.454Q193.023 538.658 192.475 535.853Q191.927 533.047 191.429 530.232Q190.93 527.418 190.481 524.595Q190.032 521.772 189.632 518.941Q189.233 516.111 188.883 513.274Q188.533 510.437 188.233 507.594Q187.933 504.751 187.682 501.904Q187.432 499.056 187.232 496.204Q187.032 493.353 186.881 490.498Q186.731 487.644 186.631 484.787Q186.277 475.01 186.508 465.23Q186.739 455.45 187.555 445.701Q188.37 435.952 189.767 426.269Q191.163 416.586 193.136 407.004C204.138 355.81 230.486 302.38 266.131 263.876C266.267 246.792 265.927 226.295 274.983 211.136C277.91 206.236 282.065 202.408 287.728 201.069C298.822 198.445 310.89 205.015 319.981 210.591C373.159 173.751 433.629 154.732 497.982 151.219Z"/>
	<path fill="#1ECEEB" transform="scale(0.03125 0.03125)" d="M503.396 170.25Q512.237 169.817 521.088 169.949Q529.938 170.081 538.763 170.777Q547.587 171.474 556.349 172.732Q565.11 173.99 573.774 175.804C654.533 193.248 724.52 239.832 769.426 309.531Q771.2 312.284 772.914 315.075Q774.628 317.866 776.281 320.693Q777.935 323.52 779.526 326.382Q781.118 329.244 782.648 332.139Q784.178 335.035 785.645 337.963Q787.112 340.891 788.516 343.85Q789.919 346.809 791.259 349.798Q792.598 352.786 793.873 355.803Q795.147 358.82 796.357 361.864Q797.566 364.907 798.709 367.976Q799.852 371.045 800.929 374.138Q802.006 377.231 803.016 380.346Q804.026 383.462 804.968 386.598Q805.911 389.735 806.785 392.891Q807.66 396.047 808.466 399.221Q809.272 402.396 810.009 405.586Q810.747 408.777 811.416 411.983Q812.084 415.189 812.683 418.409Q813.283 421.629 813.812 424.861Q814.342 428.093 814.802 431.335Q815.262 434.578 815.651 437.83Q816.041 441.081 816.361 444.341Q816.68 447.6 816.929 450.866Q817.178 454.131 817.357 457.401Q817.536 460.671 817.644 463.945Q817.752 467.218 817.789 470.493Q817.827 473.767 817.793 477.042Q817.76 480.317 817.656 483.59Q817.552 486.864 817.378 490.134Q817.203 493.405 816.958 496.67Q816.714 499.936 816.398 503.196Q816.083 506.456 815.697 509.708C814.272 522.241 811.691 534.777 809.023 547.101C805.407 544.192 802.166 541.714 797.782 540.093C796.993 538.816 796.2 537.535 795.332 536.31C789.929 528.688 782.793 523.953 773.619 522.283C779.454 521.861 785.199 521.571 789.794 517.423C794.396 513.269 795.476 508.595 795.773 502.685C796.09 496.386 795.736 489.978 795.761 483.662L795.914 441.19L795.945 414.822C795.947 408.872 796.301 402.471 795.37 396.599C794.81 393.068 793.056 389.493 790.592 386.9C786.615 382.716 781.643 380.755 775.93 380.584C768.439 380.359 760.81 380.828 753.305 380.854Q721.818 380.772 690.334 381.31C680.872 381.39 663.11 379.924 654.89 381.668C651.224 382.446 647.486 385.13 644.862 387.707C641.075 391.424 639.199 395.932 638.307 401.079C636.556 411.183 637.556 425.181 637.51 435.698L637.451 508.946C632.334 509.396 627.25 509.931 622.277 511.274C607.111 515.37 595.978 524.783 588.179 538.211C575.812 537.947 561.241 536.281 551.32 545.237C545.697 550.312 543.415 556.745 543.084 564.139C542.071 586.817 543.119 610.495 542.948 633.297Q542.598 654.081 542.559 674.867C542.57 681.855 542.071 689.64 543.485 696.475C544.265 700.244 546.648 703.917 549.27 706.671C553.134 710.727 557.591 713.151 563.07 714.273C574.523 716.619 597.708 715.436 610.181 715.46L696.459 716.01C684.45 726.216 670.069 734.276 656.069 741.406C613.674 762.996 575.554 773.598 528.034 776.4C479.504 778.464 428.021 768.116 383.037 750.178C370.709 745.262 357.901 739.709 347.069 731.955L474.143 730.556C497.878 730.512 521.544 731.515 545.286 730.458C551.76 730.17 559.056 730.362 565.312 728.545C567.124 728.018 568.418 727.538 569.326 725.839L568.75 724.864C562.575 721.232 543.377 721.697 535.683 721.574L540.048 717.276C540.06 709.458 538.37 702.197 534.648 695.288C528.138 683.206 518.727 677.82 505.956 674.005C506.962 656.52 515.263 642.704 520.672 626.587C530.811 596.375 527.547 562.893 523.783 531.787C531.028 524.976 540.793 518.623 548.726 512.233C563.947 499.972 577.367 486.163 589.738 471.035C608.45 448.153 624.101 422.136 634.18 394.312C637.27 385.785 640.468 377.483 639.47 368.249C638.459 358.891 633.494 350.491 626.188 344.636C618.158 338.199 607.839 334.827 597.553 335.993Q596.662 336.094 595.778 336.239Q594.893 336.384 594.017 336.572Q593.14 336.76 592.274 336.991Q591.408 337.222 590.555 337.496Q589.701 337.769 588.862 338.084Q588.023 338.399 587.2 338.755Q586.377 339.111 585.573 339.507Q584.769 339.903 583.985 340.338Q583.202 340.773 582.44 341.246Q581.679 341.719 580.942 342.229Q580.204 342.739 579.493 343.285Q578.782 343.83 578.099 344.41Q577.415 344.99 576.761 345.603Q576.107 346.216 575.484 346.86Q574.86 347.504 574.27 348.178Q573.679 348.853 573.122 349.555C567.769 356.396 564.762 365.555 565.916 374.231L566.018 374.946C562.779 376.066 560.059 377.314 557.21 379.197C552.64 374.231 547.244 369.134 543.984 363.205C538.099 352.504 535.423 339.785 530.839 328.453C527.685 320.654 517.029 303.218 516.629 296.321C516.281 290.317 517.549 283.359 517.849 277.266Q519.093 255.366 519.213 233.431C519.286 226.735 519.717 219.753 519.121 213.083C518.688 208.245 517.029 203.802 513.139 200.694C508.717 197.161 502.365 196.052 496.861 196.836C478.468 199.458 446.933 228.504 435.754 243.356C410.597 238.07 384.575 240.764 359.599 245.441C351.973 237.592 344.496 229.326 336.029 222.378C387.854 188.735 441.626 171.896 503.396 170.25Z"/>
	<path fill="#04162A" transform="scale(0.03125 0.03125)" d="M692.902 266.753Q694.145 266.68 695.391 266.669Q696.636 266.658 697.881 266.708Q699.125 266.758 700.366 266.869Q701.607 266.981 702.84 267.153Q704.074 267.325 705.297 267.558Q706.521 267.791 707.731 268.083Q708.942 268.376 710.137 268.728Q711.332 269.08 712.508 269.491Q713.684 269.901 714.838 270.369Q715.992 270.837 717.122 271.361Q718.252 271.885 719.355 272.464Q720.458 273.043 721.531 273.675Q722.604 274.308 723.644 274.993Q724.685 275.677 725.69 276.412Q726.695 277.148 727.664 277.931Q728.632 278.715 729.56 279.545Q730.488 280.376 731.375 281.251Q732.261 282.126 733.103 283.044Q733.945 283.961 734.741 284.919Q735.537 285.878 736.285 286.874Q737.033 287.87 737.731 288.901Q738.428 289.933 739.075 290.998Q739.721 292.062 740.314 293.158Q740.907 294.253 741.445 295.376Q741.984 296.499 742.466 297.648Q742.948 298.796 743.374 299.967Q743.799 301.137 744.166 302.328Q744.533 303.518 744.841 304.725Q745.15 305.932 745.398 307.152Q745.646 308.373 745.834 309.604Q746.022 310.835 746.149 312.074Q746.276 313.313 746.342 314.557Q746.408 315.801 746.412 317.046Q746.417 318.292 746.36 319.536Q746.304 320.78 746.186 322.02Q746.068 323.26 745.889 324.493Q745.71 325.725 745.471 326.948Q745.231 328.17 744.932 329.379Q744.633 330.588 744.275 331.781Q743.916 332.974 743.5 334.148Q743.083 335.322 742.609 336.473Q742.135 337.625 741.605 338.752Q741.075 339.88 740.49 340.979Q739.905 342.079 739.267 343.148Q738.628 344.218 737.938 345.255Q737.248 346.292 736.507 347.293Q735.767 348.295 734.978 349.258Q734.189 350.222 733.354 351.146Q732.519 352.07 731.639 352.952Q730.759 353.833 729.837 354.671Q728.915 355.508 727.952 356.299Q726.99 357.089 725.99 357.832Q724.99 358.574 723.954 359.267Q722.919 359.959 721.851 360.6Q720.783 361.24 719.684 361.827Q718.586 362.414 717.46 362.947Q716.334 363.479 715.183 363.955Q714.032 364.432 712.859 364.851Q711.686 365.27 710.494 365.631Q709.302 365.991 708.093 366.293Q706.885 366.595 705.663 366.836Q704.441 367.078 703.209 367.259Q701.977 367.441 700.737 367.561Q699.497 367.682 698.253 367.741Q697.017 367.8 695.78 367.798Q694.543 367.797 693.308 367.734Q692.072 367.672 690.841 367.55Q689.61 367.427 688.386 367.245Q687.163 367.062 685.95 366.82Q684.737 366.578 683.537 366.277Q682.337 365.976 681.153 365.616Q679.97 365.257 678.805 364.84Q677.64 364.423 676.497 363.949Q675.354 363.476 674.236 362.947Q673.118 362.418 672.026 361.836Q670.935 361.253 669.874 360.617Q668.812 359.982 667.783 359.295Q666.754 358.609 665.76 357.873Q664.766 357.136 663.809 356.353Q662.852 355.569 661.934 354.739Q661.016 353.909 660.14 353.036Q659.264 352.162 658.432 351.247Q657.6 350.331 656.814 349.376Q656.027 348.422 655.289 347.429Q654.55 346.437 653.86 345.41Q653.171 344.383 652.533 343.323Q651.895 342.263 651.309 341.173Q650.723 340.084 650.191 338.967Q649.66 337.85 649.183 336.708Q648.707 335.567 648.287 334.403Q647.867 333.239 647.504 332.057Q647.141 330.874 646.837 329.675Q646.532 328.476 646.287 327.263Q646.042 326.051 645.856 324.828Q645.67 323.605 645.544 322.374Q645.418 321.143 645.353 319.908Q645.288 318.673 645.283 317.436Q645.278 316.199 645.333 314.963Q645.389 313.727 645.505 312.495Q645.62 311.264 645.797 310.039Q645.973 308.815 646.208 307.6Q646.444 306.386 646.739 305.184Q647.033 303.983 647.387 302.797Q647.74 301.612 648.15 300.445Q648.561 299.278 649.028 298.132Q649.496 296.987 650.018 295.866Q650.541 294.745 651.118 293.65Q651.695 292.556 652.325 291.491Q652.955 290.426 653.636 289.394Q654.317 288.361 655.048 287.363Q655.778 286.365 656.557 285.403Q657.336 284.442 658.161 283.52Q658.985 282.598 659.854 281.717Q660.723 280.837 661.634 280Q662.545 279.163 663.496 278.371Q664.446 277.58 665.435 276.836Q666.423 276.092 667.446 275.397Q668.47 274.702 669.526 274.058Q670.582 273.414 671.669 272.823Q672.755 272.231 673.87 271.693Q674.984 271.156 676.123 270.673Q677.262 270.19 678.423 269.764Q679.584 269.338 680.765 268.969Q681.946 268.6 683.143 268.289Q684.341 267.978 685.552 267.726Q686.763 267.475 687.985 267.282Q689.207 267.09 690.437 266.957Q691.667 266.825 692.902 266.753Z"/>
	<path fill="#1ECEEB" transform="scale(0.03125 0.03125)" d="M722.346 290.33C724.591 291.123 726.457 293.755 727.651 295.696C733.299 304.875 734.912 316.801 732.498 327.242C730.157 337.366 723.786 345.391 714.968 350.768C706.74 355.786 695.697 356.884 686.416 354.622C675.757 352.024 668.562 345.439 662.925 336.322Q661.378 333.443 660.24 330.379Q659.102 327.316 658.395 324.125C655.914 312.645 658.99 303.274 665.277 293.67C670.655 301.593 682.87 315.091 691.05 320.005C698.259 315.771 715.574 297.128 722.346 290.33Z"/>
	<path fill="#04162A" transform="scale(0.03125 0.03125)" d="M725.838 306.367C727.188 313.467 724.344 323.173 721.123 329.497C717.177 337.244 710.92 344.679 702.318 347.263C695.794 349.223 688.638 348.225 682.733 344.896C674.125 340.042 668.828 331.522 666.247 322.211C665.395 318.859 665.188 315.233 664.791 311.794C669.672 320.606 677.613 331.65 686.19 337.132C689.855 339.473 694.096 340.49 698.367 339.4C710.568 336.288 719.56 316.628 725.838 306.367Z"/>
	<path fill="#1ECEEB" transform="scale(0.03125 0.03125)" d="M691.808 279.658C701.44 278.13 711.732 282.405 719.514 287.727C709.639 290.456 702.238 296.949 694.553 303.382C693.827 303.756 692.848 304.253 692.009 304.294C686.551 304.566 672.973 293.805 667.93 290.462C674.729 284.173 682.747 281.054 691.808 279.658Z"/>
	<path fill="#F9C51E" transform="scale(0.03125 0.03125)" d="M440.009 257.593C446.308 250.842 452 243.664 458.658 237.228C467.081 229.086 488.932 208.573 500.451 209.129C502.905 209.247 504.168 210.084 505.813 211.822C508.572 218.995 505.543 282.971 504.356 293.076C501.498 289.164 498.17 285.56 495.163 281.75Q497.589 249.686 498.284 217.538C487.601 223.682 478.558 231.192 470.567 240.602C465.949 246.041 461.699 251.728 456.761 256.894C493.593 276.599 509.228 305.197 522.424 342.99C526.178 353.74 527.511 363.667 534.005 373.308C541.662 381.929 549.878 390.247 557.049 399.268C547.123 400.903 538.289 403.331 528.943 407.045C539.206 408.465 547.559 413.634 554.355 421.326C552.561 422.793 550.169 425.258 548.119 426.206C533.611 440.395 483.548 477.577 464.566 483.792C456.414 486.461 447.369 485.714 438.946 486.883C430.168 487.627 420.887 488.448 412.105 487.542C397.082 488.112 387.228 482.849 373.548 478.197C366.335 475.745 358.941 473.825 351.721 471.385C340.556 467.611 329.462 462.792 318.929 457.523C307.19 451.649 296.273 444.305 285.068 437.499C277.501 432.902 269.673 428.747 261.878 424.553C265.533 421.039 268.937 417.37 272.237 413.522C273.363 411.669 274.523 409.294 276.008 407.736C278.628 404.988 282.41 405.34 285.903 405.18C286.728 404.929 287.291 404.609 288.031 404.178L286.421 404.2L287.064 403.939Q272.333 402.344 258.023 398.499C268.925 384.934 277.773 372.028 279.816 354.263C280.721 346.399 281.073 338.37 282.637 330.598C283.887 324.383 287.813 317.395 287.285 311.085C286.744 304.624 283.886 297.959 282.4 291.614C279.723 280.189 278.683 267.841 278.579 256.107C278.485 245.396 279.466 223.043 287.846 215.068C289.839 213.171 292.341 212.297 295.079 212.48C299.892 212.804 304.605 215.868 308.613 218.331C326.8 229.506 341.364 244.393 355.589 260.084C381.551 254.198 414.108 250.246 440.009 257.593Z"/>
	<path fill="#FBE585" transform="scale(0.03125 0.03125)" d="M509.582 358.333C515.708 366.625 523.983 371.044 534.005 373.308C541.662 381.929 549.878 390.247 557.049 399.268C547.123 400.903 538.289 403.331 528.943 407.045C539.206 408.465 547.559 413.634 554.355 421.326C552.561 422.793 550.169 425.258 548.119 426.206C533.611 440.395 483.548 477.577 464.566 483.792C456.414 486.461 447.369 485.714 438.946 486.883C430.168 487.627 420.887 488.448 412.105 487.542C407.616 484.222 400.61 483.282 395.494 480.587C392.397 478.257 375.134 471.568 370.497 469.513Q367.154 468.033 363.888 466.389Q360.623 464.745 357.443 462.941Q354.264 461.137 351.178 459.177Q348.092 457.216 345.107 455.105Q342.123 452.994 339.247 450.737Q336.371 448.48 333.611 446.082Q330.85 443.685 328.213 441.153Q325.575 438.622 323.067 435.962C319.046 431.632 315.629 426.871 311.753 422.436C311.594 422.095 311.44 421.751 311.265 421.418C308.565 416.271 309.317 411.402 310.632 405.933C314.635 389.297 323.745 377.468 338.244 368.66C346.857 376.856 356.676 381.576 368.76 381.21C378.698 380.91 386.461 376.456 393.984 370.318C396.287 369.959 398.536 368.96 400.784 368.32Q407.361 366.477 414.122 365.505C423.316 364.217 432.144 364.269 441.344 365.446C445.048 365.92 448.913 366.89 452.628 367.005L453.571 367.025Q453.919 367.421 454.278 367.807Q454.638 368.192 455.01 368.566Q455.382 368.94 455.765 369.302Q456.148 369.664 456.543 370.014Q456.937 370.363 457.343 370.701Q457.748 371.038 458.164 371.362Q458.579 371.686 459.005 371.997Q459.43 372.309 459.866 372.606Q460.301 372.904 460.745 373.188Q461.19 373.471 461.643 373.741Q462.096 374.011 462.557 374.266Q463.018 374.521 463.487 374.762Q463.956 375.003 464.433 375.229Q464.909 375.455 465.392 375.665Q465.875 375.876 466.365 376.072Q466.855 376.267 467.35 376.447Q467.846 376.627 468.347 376.792Q468.848 376.956 469.353 377.105Q469.859 377.253 470.37 377.386Q470.88 377.519 471.394 377.635Q471.908 377.752 472.426 377.852Q472.943 377.953 473.464 378.037Q473.984 378.121 474.507 378.188Q475.03 378.256 475.555 378.307Q476.079 378.358 476.606 378.393Q477.132 378.428 477.659 378.446Q478.185 378.464 478.713 378.466Q479.24 378.467 479.767 378.453Q480.294 378.438 480.82 378.406Q481.346 378.375 481.871 378.327Q482.396 378.279 482.92 378.214Q483.443 378.15 483.964 378.069Q484.485 377.988 485.003 377.891Q485.521 377.794 486.036 377.68Q486.551 377.567 487.062 377.438Q487.573 377.308 488.08 377.163Q488.587 377.017 489.089 376.856Q489.591 376.695 490.088 376.518Q490.584 376.341 491.075 376.148Q491.566 375.956 492.05 375.748Q492.535 375.54 493.013 375.317Q493.491 375.094 493.961 374.856Q494.432 374.618 494.895 374.366Q495.357 374.113 495.812 373.846Q496.267 373.579 496.713 373.298Q497.159 373.017 497.596 372.722Q498.033 372.428 498.461 372.119Q498.888 371.811 499.306 371.489Q499.724 371.167 500.131 370.832Q500.538 370.498 500.935 370.15Q501.332 369.803 501.717 369.443Q502.103 369.084 502.477 368.712Q502.851 368.34 503.213 367.957Q503.575 367.574 503.925 367.18Q504.275 366.786 504.613 366.38Q504.95 365.975 505.275 365.56Q505.599 365.144 505.911 364.719Q506.222 364.293 506.52 363.858Q506.818 363.423 507.102 362.979Q507.386 362.535 507.656 362.082Q507.926 361.629 508.181 361.168Q508.437 360.707 508.678 360.238Q508.919 359.769 509.145 359.292Q509.371 358.816 509.582 358.333Z"/>
	<path fill="#F9C51E" transform="scale(0.03125 0.03125)" d="M438.946 486.883C440.391 485.478 466.706 471.94 471.543 469.297C483.032 463.018 494.418 456.091 505.464 449.052C512.178 444.775 518.818 440.015 525.803 436.211C532.026 432.822 541.271 427.582 548.119 426.206C533.611 440.395 483.548 477.577 464.566 483.792C456.414 486.461 447.369 485.714 438.946 486.883Z"/>
	<path fill="#0E1013" transform="scale(0.03125 0.03125)" d="M422.175 377.194C422.214 377.189 422.253 377.181 422.293 377.178C433.471 376.386 449.768 376.396 458.711 384.398C461.33 386.741 462.972 389.83 463.006 393.386C463.156 409.246 445.591 414.198 436.346 423.403C436.185 423.563 436.028 423.726 435.869 423.888C445.505 428.447 459.78 428.889 469.974 426.094C474.963 424.726 478.722 422.047 481.244 417.469C483.81 412.81 485.886 404.454 484.07 399.269C482.001 393.363 470.637 389.216 465.434 386.479C472.088 387.31 479.867 388.645 485.856 391.804C489.458 393.705 491.896 396.447 493.039 400.385C495.16 407.695 493.402 417.234 489.761 423.82C484.802 432.791 477.631 436.041 468.177 438.732C465.141 451.762 459.908 463.87 448.526 471.653C438.699 478.372 427.183 479.88 415.628 477.713C410.447 476.368 405.785 474.772 401.268 471.823C388.828 463.702 383.806 450.862 380.784 436.943C375.699 435.582 371.09 433.693 367.528 429.638C361.117 422.34 359.578 411.654 360.347 402.305C353.23 404.312 346.046 406.15 339.235 409.065C343.142 405.249 347.324 401.818 352.042 399.042C360.446 394.098 372.127 389.933 381.879 392.411C376.786 394.589 371.915 397.192 367.024 399.782C367.782 407.272 369.713 415.56 374.936 421.302C380.264 427.159 390.09 426.998 397.453 427.257C402.549 427.435 419.724 427.947 423.392 423.951C423.902 423.396 423.695 423.053 423.654 422.364C422.285 420.33 419.907 419.081 417.943 417.661C410.746 412.46 400.852 404.663 399.542 395.206C399.04 391.58 399.941 387.763 402.309 384.929C406.9 379.435 415.429 377.91 422.175 377.194Z"/>
	<path fill="#183438" transform="scale(0.03125 0.03125)" d="M407.707 389.72C408.29 389.05 408.888 388.371 409.563 387.79C415.743 382.469 429.316 382.523 437 383.12C443.503 383.625 450.467 384.667 454.939 389.877C455.753 390.792 455.996 391.497 456.037 392.738C456.152 396.203 451.992 400.007 449.546 402.097C443.765 407.036 436.952 411.476 430.387 415.306C424.959 411.266 407.197 400.826 406.43 394.691C406.215 392.976 406.712 391.123 407.707 389.72Z"/>
	<path fill="#1B5F68" transform="scale(0.03125 0.03125)" d="M407.707 389.72C408.29 389.05 408.888 388.371 409.563 387.79C415.743 382.469 429.316 382.523 437 383.12C443.503 383.625 450.467 384.667 454.939 389.877C453.559 391.515 452.424 391.326 450.618 392.242C443.882 393.896 423.171 393.449 415.71 392.78C413.072 391.65 410.413 390.672 407.707 389.72Z"/>
	<path fill="#0E1013" transform="scale(0.03125 0.03125)" d="M450.618 392.242C450.752 393.118 450.968 393.152 450.374 393.912C448.024 396.917 440.542 397.594 436.881 397.829C429.758 398.286 421.532 398.187 414.54 396.809L413.564 395.725L413.155 396.341C413.574 394.999 414.933 393.993 415.71 392.78C423.171 393.449 443.882 393.896 450.618 392.242Z"/>
	<path fill="#FE7854" transform="scale(0.03125 0.03125)" d="M411.993 448.669C412.451 448.623 412.909 448.571 413.369 448.553C418.232 448.365 421.775 450.246 425.237 453.504C428.327 451.198 431.364 449.55 435.281 449.307C442.092 448.885 447.656 452.856 452.527 457.083C449.129 461.809 445.676 464.774 440.596 467.504C432.712 471.091 423.153 472.302 414.805 469.655C407.028 467.19 401.132 461.919 397.482 454.678C402.165 451.115 406.188 449.542 411.993 448.669Z"/>
	<path fill="#FEFCF7" transform="scale(0.03125 0.03125)" d="M338.244 368.66C332.939 360.678 330.231 351.926 332.163 342.359C334.169 332.424 340.425 322.837 348.988 317.334Q349.696 316.882 350.425 316.465Q351.155 316.048 351.904 315.667Q352.652 315.286 353.419 314.942Q354.186 314.599 354.968 314.293Q355.751 313.987 356.547 313.72Q357.344 313.453 358.152 313.225Q358.961 312.997 359.78 312.809Q360.599 312.621 361.426 312.474Q362.253 312.326 363.086 312.219Q363.919 312.112 364.757 312.046Q365.594 311.98 366.434 311.955Q367.274 311.93 368.114 311.946Q368.954 311.962 369.792 312.019Q370.63 312.077 371.465 312.175Q372.299 312.273 373.128 312.412Q373.956 312.551 374.777 312.73C384.113 314.806 392.732 321.297 397.785 329.361C402.38 336.693 404.083 345.931 402.104 354.38C400.726 360.265 397.753 365.632 393.984 370.318C386.461 376.456 378.698 380.91 368.76 381.21C356.676 381.576 346.857 376.856 338.244 368.66Z"/>
	<path fill="#0E1013" transform="scale(0.03125 0.03125)" d="M361.902 321.991Q362.31 321.938 362.719 321.899Q363.128 321.86 363.538 321.834Q363.948 321.809 364.359 321.797Q364.77 321.784 365.181 321.786Q365.592 321.787 366.003 321.802Q366.414 321.817 366.824 321.846Q367.234 321.874 367.643 321.916Q368.052 321.958 368.459 322.013Q368.866 322.069 369.271 322.138Q369.677 322.206 370.079 322.289Q370.482 322.371 370.882 322.466Q371.282 322.561 371.678 322.67Q372.075 322.778 372.467 322.9Q372.86 323.021 373.248 323.156Q373.637 323.29 374.021 323.437Q374.404 323.584 374.783 323.744Q375.162 323.903 375.535 324.075Q375.909 324.247 376.276 324.432Q376.643 324.616 377.005 324.812Q377.366 325.008 377.72 325.216Q378.075 325.424 378.422 325.644Q378.77 325.864 379.11 326.095Q379.45 326.326 379.782 326.568Q380.114 326.81 380.438 327.062Q380.762 327.315 381.078 327.579Q381.393 327.842 381.7 328.116Q382.007 328.389 382.304 328.673Q382.602 328.956 382.89 329.25Q383.178 329.543 383.456 329.845Q383.734 330.148 384.003 330.459Q384.271 330.771 384.528 331.091Q384.786 331.411 385.033 331.74Q385.28 332.069 385.516 332.405Q385.752 332.742 385.977 333.086Q386.202 333.43 386.415 333.781Q386.628 334.132 386.83 334.491Q387.032 334.849 387.221 335.213Q387.411 335.578 387.589 335.949Q387.767 336.319 387.932 336.696Q388.097 337.072 388.25 337.453Q388.403 337.835 388.543 338.221Q388.683 338.608 388.811 338.999Q388.938 339.389 389.052 339.784Q389.167 340.179 389.268 340.577Q389.37 340.976 389.458 341.377Q389.546 341.779 389.621 342.183Q389.696 342.587 389.757 342.993Q389.819 343.4 389.867 343.808Q389.915 344.216 389.95 344.626Q389.984 345.035 390.006 345.446Q390.027 345.856 390.034 346.267Q390.042 346.678 390.036 347.089Q390.03 347.5 390.011 347.911Q389.991 348.321 389.958 348.731Q389.925 349.141 389.879 349.549Q389.832 349.957 389.772 350.364Q389.712 350.771 389.639 351.175Q389.566 351.58 389.479 351.981Q389.393 352.383 389.293 352.782Q389.193 353.181 389.08 353.576Q388.967 353.971 388.842 354.363Q388.716 354.754 388.577 355.141Q388.438 355.528 388.287 355.91Q388.136 356.292 387.972 356.669Q387.808 357.046 387.632 357.417Q387.456 357.789 387.268 358.154Q387.079 358.52 386.879 358.879Q386.679 359.238 386.467 359.59Q386.255 359.942 386.031 360.287Q385.808 360.632 385.573 360.969Q385.339 361.307 385.093 361.636Q384.847 361.966 384.591 362.287Q384.334 362.608 384.067 362.921Q383.801 363.234 383.524 363.537Q383.247 363.841 382.96 364.136Q382.673 364.43 382.376 364.715Q382.08 365 381.774 365.274Q381.469 365.549 381.154 365.814Q380.84 366.078 380.517 366.333Q380.194 366.587 379.862 366.83Q379.531 367.073 379.192 367.306Q378.853 367.538 378.506 367.759Q378.16 367.98 377.806 368.189Q377.452 368.399 377.092 368.597Q376.731 368.794 376.365 368.98Q375.998 369.166 375.625 369.339Q375.253 369.513 374.875 369.674Q374.496 369.835 374.113 369.984Q373.73 370.132 373.342 370.268Q372.954 370.404 372.562 370.527Q372.17 370.65 371.774 370.76Q371.378 370.87 370.978 370.967Q370.579 371.064 370.176 371.148Q369.774 371.232 369.369 371.302Q368.964 371.372 368.557 371.429Q368.15 371.486 367.741 371.53Q367.136 371.594 366.529 371.629Q365.923 371.664 365.315 371.67Q364.707 371.675 364.099 371.651Q363.492 371.626 362.886 371.572Q362.281 371.518 361.678 371.435Q361.076 371.352 360.479 371.239Q359.881 371.127 359.29 370.985Q358.699 370.844 358.115 370.673Q357.531 370.503 356.957 370.305Q356.382 370.106 355.818 369.88Q355.253 369.654 354.701 369.401Q354.148 369.147 353.608 368.867Q353.069 368.587 352.543 368.281Q352.018 367.975 351.508 367.644Q350.998 367.313 350.505 366.957Q350.012 366.602 349.537 366.222Q349.062 365.843 348.606 365.441Q348.15 365.039 347.714 364.615Q347.278 364.192 346.863 363.747Q346.448 363.303 346.055 362.839Q345.663 362.374 345.293 361.892Q344.923 361.409 344.578 360.909Q344.232 360.409 343.911 359.892Q343.59 359.376 343.295 358.845Q343 358.313 342.731 357.768Q342.462 357.223 342.219 356.665Q341.977 356.108 341.762 355.539Q341.548 354.97 341.361 354.391Q341.174 353.813 341.016 353.226Q340.857 352.639 340.728 352.045Q340.598 351.451 340.498 350.851Q340.397 350.252 340.326 349.648Q340.255 349.044 340.213 348.438Q340.171 347.831 340.159 347.223Q340.147 346.615 340.165 346.008Q340.182 345.4 340.23 344.794Q340.277 344.188 340.353 343.585Q340.43 342.981 340.536 342.383Q340.642 341.784 340.777 341.191Q340.912 340.598 341.075 340.013Q341.239 339.427 341.431 338.851Q341.623 338.274 341.843 337.707Q342.063 337.14 342.31 336.585Q342.557 336.029 342.831 335.486Q343.105 334.944 343.405 334.415Q343.706 333.886 344.031 333.373Q344.357 332.859 344.707 332.362Q345.057 331.865 345.431 331.386Q345.805 330.907 346.202 330.446Q346.599 329.985 347.017 329.545Q347.436 329.104 347.876 328.684Q348.316 328.265 348.776 327.867Q349.235 327.469 349.714 327.094Q350.193 326.719 350.689 326.368Q351.185 326.017 351.698 325.69Q352.211 325.363 352.739 325.062Q353.267 324.761 353.809 324.486Q354.351 324.211 354.906 323.962Q355.461 323.714 356.027 323.493Q356.594 323.272 357.17 323.079Q357.747 322.885 358.332 322.72Q358.917 322.556 359.51 322.419Q360.102 322.283 360.701 322.176Q361.299 322.069 361.902 321.991Z"/>
	<path fill="#FEFCF7" transform="scale(0.03125 0.03125)" d="M373.798 329.405Q374.116 329.317 374.439 329.249Q374.763 329.182 375.09 329.137Q375.417 329.091 375.746 329.067Q376.075 329.044 376.405 329.042Q376.736 329.04 377.065 329.06Q377.395 329.08 377.722 329.121Q378.05 329.163 378.374 329.226Q378.698 329.29 379.017 329.374Q379.336 329.459 379.649 329.565Q379.961 329.67 380.267 329.796Q380.572 329.923 380.868 330.069Q381.164 330.215 381.45 330.38Q381.735 330.545 382.01 330.729Q382.284 330.913 382.545 331.115Q382.807 331.316 383.054 331.535Q383.302 331.754 383.534 331.988Q383.766 332.222 383.983 332.472Q384.199 332.721 384.399 332.984Q384.598 333.247 384.779 333.523Q384.961 333.799 385.124 334.086Q385.287 334.373 385.43 334.67Q385.574 334.968 385.697 335.274Q385.821 335.58 385.923 335.894Q386.026 336.207 386.108 336.527Q386.19 336.847 386.251 337.172Q386.311 337.496 386.35 337.824Q386.389 338.152 386.406 338.481Q386.423 338.811 386.419 339.141Q386.414 339.471 386.387 339.8Q386.361 340.129 386.312 340.456Q386.264 340.782 386.194 341.105Q386.124 341.428 386.033 341.745Q385.942 342.062 385.83 342.373Q385.718 342.683 385.586 342.986Q385.454 343.288 385.302 343.582Q385.15 343.875 384.979 344.157Q384.808 344.439 384.618 344.71Q384.429 344.98 384.222 345.237Q384.015 345.495 383.792 345.738Q383.568 345.981 383.329 346.208Q383.09 346.436 382.836 346.647Q382.583 346.859 382.316 347.053Q382.049 347.247 381.769 347.423Q381.49 347.599 381.2 347.756Q380.909 347.913 380.609 348.05Q380.309 348.188 380 348.305Q379.692 348.422 379.376 348.519Q379.06 348.616 378.739 348.691Q378.504 348.746 378.267 348.79Q378.03 348.833 377.79 348.866Q377.551 348.898 377.311 348.918Q377.071 348.939 376.829 348.948Q376.588 348.957 376.347 348.954Q376.106 348.951 375.865 348.936Q375.624 348.922 375.384 348.896Q375.145 348.87 374.906 348.832Q374.668 348.794 374.432 348.745Q374.196 348.696 373.962 348.635Q373.729 348.574 373.498 348.503Q373.268 348.431 373.041 348.348Q372.815 348.265 372.593 348.171Q372.37 348.077 372.153 347.973Q371.935 347.868 371.723 347.753Q371.511 347.638 371.305 347.513Q371.098 347.388 370.898 347.254Q370.698 347.119 370.505 346.974Q370.312 346.83 370.126 346.676Q369.94 346.523 369.761 346.36Q369.583 346.198 369.412 346.027Q369.242 345.856 369.08 345.677Q368.918 345.498 368.765 345.312Q368.612 345.125 368.469 344.931Q368.325 344.738 368.191 344.537Q368.056 344.337 367.932 344.13Q367.808 343.923 367.693 343.711Q367.579 343.498 367.475 343.28Q367.372 343.063 367.279 342.84Q367.186 342.617 367.103 342.391Q367.021 342.164 366.95 341.933Q366.879 341.703 366.819 341.469Q366.759 341.235 366.711 340.999Q366.662 340.763 366.625 340.524Q366.588 340.286 366.563 340.046Q366.537 339.806 366.524 339.565Q366.51 339.324 366.508 339.083Q366.506 338.842 366.515 338.601Q366.525 338.359 366.546 338.119Q366.568 337.879 366.6 337.64Q366.633 337.401 366.678 337.164Q366.722 336.927 366.778 336.692Q366.834 336.457 366.901 336.225Q366.968 335.994 367.047 335.765Q367.125 335.537 367.214 335.313Q367.304 335.089 367.404 334.869Q367.504 334.65 367.614 334.435Q367.725 334.221 367.846 334.012Q367.966 333.803 368.097 333.601Q368.228 333.398 368.368 333.202Q368.509 333.006 368.659 332.816Q368.808 332.627 368.967 332.446Q369.126 332.264 369.293 332.09Q369.461 331.916 369.636 331.751Q369.812 331.586 369.995 331.429Q370.179 331.272 370.37 331.124Q370.56 330.977 370.758 330.838Q370.956 330.7 371.16 330.572Q371.364 330.443 371.574 330.325Q371.785 330.206 372 330.098Q372.216 329.99 372.437 329.892Q372.657 329.795 372.882 329.708Q373.107 329.621 373.336 329.545Q373.566 329.47 373.798 329.405Z"/>
	<path fill="#FEFCF7" transform="scale(0.03125 0.03125)" d="M453.571 367.025Q453.078 366.463 452.611 365.88Q452.144 365.296 451.703 364.693Q451.263 364.089 450.849 363.467Q450.436 362.844 450.05 362.204Q449.665 361.564 449.309 360.907Q448.952 360.25 448.625 359.578Q448.298 358.906 448.002 358.22Q447.705 357.534 447.439 356.836Q447.173 356.137 446.939 355.428Q446.704 354.718 446.502 353.999Q446.299 353.279 446.129 352.552Q445.958 351.824 445.82 351.09Q445.682 350.355 445.577 349.615Q445.472 348.875 445.4 348.132Q445.328 347.388 445.289 346.641Q445.25 345.895 445.244 345.148Q445.239 344.401 445.266 343.654Q445.294 342.907 445.355 342.162Q445.415 341.417 445.509 340.676Q445.603 339.934 445.73 339.198Q445.857 338.462 446.016 337.731Q446.175 337.001 446.367 336.279Q446.559 335.557 446.783 334.844Q447.006 334.131 447.262 333.428Q447.517 332.726 447.803 332.035Q448.089 331.345 448.406 330.668Q448.722 329.991 449.069 329.329Q449.415 328.667 449.791 328.021Q450.167 327.375 450.57 326.746Q450.974 326.117 451.406 325.507Q451.837 324.897 452.296 324.307Q452.754 323.716 453.238 323.147Q453.722 322.578 454.231 322.03Q454.74 321.483 455.273 320.959Q455.806 320.435 456.361 319.935Q456.917 319.435 457.494 318.961Q458.071 318.486 458.669 318.038Q459.267 317.589 459.884 317.168Q460.501 316.746 461.137 316.353Q461.772 315.959 462.424 315.594Q463.076 315.229 463.744 314.894Q464.412 314.558 465.094 314.253Q465.776 313.947 466.471 313.673Q467.166 313.398 467.872 313.154Q468.579 312.911 469.296 312.699Q470.012 312.487 470.738 312.307Q471.463 312.127 472.196 311.98Q472.928 311.832 473.667 311.718Q474.405 311.603 475.148 311.521Q475.891 311.44 476.637 311.391Q477.383 311.343 478.13 311.328Q478.877 311.312 479.624 311.33Q480.371 311.348 481.117 311.399Q481.862 311.451 482.605 311.535Q483.348 311.619 484.086 311.737Q484.824 311.854 485.556 312.004Q486.288 312.154 487.013 312.336Q487.737 312.519 488.453 312.733Q489.169 312.948 489.875 313.194Q490.58 313.44 491.274 313.718Q491.968 313.995 492.649 314.303Q493.33 314.611 493.997 314.949Q494.663 315.287 495.314 315.654Q495.965 316.021 496.599 316.417Q497.233 316.813 497.849 317.237Q498.464 317.66 499.06 318.111Q499.657 318.561 500.232 319.038Q500.808 319.515 501.362 320.017Q501.915 320.519 502.446 321.045Q502.977 321.571 503.484 322.12Q503.991 322.669 504.473 323.24Q504.955 323.811 505.411 324.403Q505.867 324.995 506.297 325.607Q506.726 326.219 507.128 326.849Q507.529 327.479 507.903 328.127Q508.276 328.774 508.62 329.437Q508.964 330.101 509.278 330.779Q509.592 331.457 509.876 332.148Q510.16 332.84 510.412 333.543Q510.665 334.247 510.886 334.96Q511.107 335.674 511.296 336.397Q511.486 337.12 511.642 337.851Q511.799 338.582 511.923 339.319Q512.047 340.056 512.138 340.797Q512.23 341.539 512.288 342.284Q512.346 343.029 512.371 343.776Q512.396 344.523 512.387 345.271Q512.379 346.018 512.337 346.764Q512.296 347.51 512.221 348.254Q512.146 348.997 512.038 349.737Q511.93 350.477 511.79 351.211Q511.649 351.945 511.476 352.672Q511.303 353.398 511.097 354.117Q510.892 354.836 510.655 355.544Q510.418 356.253 510.15 356.951Q509.881 357.648 509.582 358.333Q509.371 358.816 509.145 359.292Q508.919 359.769 508.678 360.238Q508.437 360.707 508.181 361.168Q507.926 361.629 507.656 362.082Q507.386 362.535 507.102 362.979Q506.818 363.423 506.52 363.858Q506.222 364.293 505.911 364.719Q505.599 365.144 505.275 365.56Q504.95 365.975 504.613 366.38Q504.275 366.786 503.925 367.18Q503.575 367.574 503.213 367.957Q502.851 368.34 502.477 368.712Q502.103 369.084 501.717 369.443Q501.332 369.803 500.935 370.15Q500.538 370.497 500.131 370.832Q499.724 371.167 499.306 371.489Q498.888 371.81 498.461 372.119Q498.033 372.427 497.596 372.722Q497.159 373.017 496.713 373.298Q496.267 373.579 495.812 373.846Q495.357 374.113 494.895 374.366Q494.432 374.618 493.961 374.856Q493.491 375.094 493.013 375.317Q492.535 375.54 492.05 375.748Q491.566 375.955 491.075 376.148Q490.584 376.341 490.088 376.518Q489.591 376.695 489.089 376.856Q488.587 377.017 488.08 377.163Q487.573 377.308 487.062 377.438Q486.551 377.567 486.036 377.68Q485.521 377.794 485.003 377.891Q484.485 377.988 483.964 378.069Q483.443 378.15 482.92 378.214Q482.396 378.279 481.871 378.327Q481.346 378.375 480.82 378.406Q480.294 378.438 479.767 378.453Q479.24 378.467 478.713 378.466Q478.185 378.464 477.659 378.446Q477.132 378.428 476.606 378.393Q476.079 378.358 475.555 378.307Q475.03 378.256 474.507 378.188Q473.984 378.121 473.464 378.037Q472.943 377.953 472.426 377.852Q471.908 377.752 471.394 377.635Q470.88 377.519 470.37 377.386Q469.859 377.253 469.353 377.105Q468.848 376.956 468.347 376.792Q467.846 376.627 467.35 376.447Q466.855 376.267 466.365 376.072Q465.875 375.876 465.392 375.665Q464.909 375.455 464.433 375.229Q463.956 375.003 463.487 374.762Q463.018 374.521 462.557 374.266Q462.096 374.011 461.643 373.741Q461.19 373.471 460.745 373.188Q460.301 372.904 459.866 372.606Q459.43 372.309 459.005 371.997Q458.579 371.686 458.164 371.362Q457.748 371.038 457.343 370.701Q456.937 370.363 456.543 370.014Q456.148 369.664 455.765 369.302Q455.382 368.94 455.01 368.566Q454.638 368.192 454.278 367.807Q453.919 367.421 453.571 367.025Z"/>
	<path fill="#0E1013" transform="scale(0.03125 0.03125)" d="M472.727 322.238Q473.125 322.165 473.525 322.105Q473.925 322.046 474.327 321.999Q474.729 321.953 475.132 321.919Q475.536 321.886 475.94 321.867Q476.344 321.847 476.748 321.84Q477.153 321.834 477.557 321.841Q477.962 321.848 478.366 321.868Q478.77 321.888 479.173 321.922Q479.576 321.955 479.978 322.002Q480.38 322.049 480.78 322.109Q481.18 322.169 481.578 322.243Q481.976 322.316 482.371 322.403Q482.767 322.489 483.159 322.589Q483.551 322.688 483.94 322.8Q484.328 322.913 484.713 323.038Q485.098 323.163 485.478 323.301Q485.859 323.439 486.234 323.589Q486.61 323.739 486.98 323.902Q487.351 324.064 487.716 324.239Q488.081 324.414 488.44 324.601Q488.798 324.787 489.151 324.986Q489.504 325.184 489.849 325.395Q490.195 325.605 490.534 325.826Q490.873 326.047 491.204 326.28Q491.535 326.512 491.858 326.755Q492.182 326.998 492.497 327.252Q492.812 327.506 493.118 327.77Q493.425 328.034 493.723 328.308Q494.02 328.582 494.309 328.866Q494.597 329.15 494.876 329.443Q495.155 329.736 495.424 330.038Q495.693 330.34 495.952 330.651Q496.211 330.962 496.46 331.281Q496.708 331.6 496.946 331.928Q497.184 332.255 497.411 332.59Q497.638 332.925 497.853 333.267Q498.069 333.61 498.273 333.959Q498.478 334.308 498.67 334.664Q498.863 335.02 499.044 335.382Q499.224 335.744 499.393 336.111Q499.562 336.479 499.718 336.852Q499.875 337.225 500.019 337.604Q500.163 337.982 500.295 338.364Q500.426 338.747 500.545 339.134Q500.664 339.52 500.77 339.911Q500.875 340.301 500.968 340.695Q501.061 341.089 501.141 341.486Q501.221 341.882 501.288 342.281Q501.355 342.68 501.408 343.081Q501.462 343.482 501.502 343.885Q501.542 344.288 501.569 344.691Q501.596 345.095 501.61 345.499Q501.623 345.904 501.624 346.308Q501.624 346.713 501.611 347.117Q501.597 347.522 501.571 347.926Q501.544 348.329 501.505 348.732Q501.465 349.135 501.412 349.536Q501.359 349.937 501.292 350.336Q501.226 350.735 501.146 351.132Q501.067 351.529 500.974 351.922Q500.882 352.316 500.776 352.707Q500.671 353.097 500.552 353.484Q500.434 353.871 500.303 354.254Q500.172 354.637 500.028 355.015Q499.884 355.393 499.728 355.767Q499.572 356.14 499.404 356.508Q499.235 356.876 499.055 357.238Q498.875 357.6 498.682 357.956Q498.49 358.312 498.286 358.661Q498.082 359.011 497.867 359.353Q497.651 359.696 497.425 360.031Q497.198 360.366 496.961 360.694Q496.723 361.021 496.475 361.341Q496.227 361.66 495.968 361.972Q495.709 362.283 495.441 362.585Q495.172 362.888 494.893 363.181Q494.615 363.474 494.326 363.758Q494.038 364.042 493.741 364.317Q493.443 364.591 493.137 364.855Q492.831 365.12 492.516 365.374Q492.201 365.628 491.878 365.871Q491.555 366.115 491.224 366.348Q490.893 366.58 490.554 366.802Q490.216 367.024 489.87 367.234Q489.525 367.444 489.172 367.643Q488.82 367.842 488.461 368.029Q488.102 368.216 487.738 368.391Q487.373 368.567 487.003 368.73Q486.632 368.893 486.257 369.043Q485.881 369.194 485.501 369.332Q485.121 369.47 484.736 369.596Q484.351 369.721 483.963 369.834Q483.574 369.947 483.182 370.047Q482.79 370.146 482.395 370.233Q482 370.32 481.602 370.394Q481.204 370.467 480.804 370.528Q480.216 370.617 479.624 370.677Q479.031 370.738 478.437 370.769Q477.843 370.801 477.248 370.804Q476.653 370.806 476.058 370.78Q475.464 370.754 474.871 370.699Q474.278 370.643 473.689 370.56Q473.1 370.476 472.516 370.363Q471.931 370.251 471.353 370.11Q470.775 369.97 470.204 369.801Q469.633 369.633 469.071 369.436Q468.51 369.24 467.958 369.017Q467.406 368.794 466.866 368.544Q466.326 368.294 465.798 368.019Q465.271 367.743 464.758 367.442Q464.244 367.141 463.746 366.816Q463.248 366.49 462.766 366.141Q462.284 365.791 461.82 365.419Q461.356 365.047 460.91 364.652Q460.465 364.258 460.039 363.842Q459.613 363.426 459.208 362.991Q458.802 362.555 458.419 362.1Q458.035 361.645 457.674 361.172Q457.313 360.698 456.976 360.208Q456.638 359.718 456.325 359.212Q456.011 358.706 455.723 358.186Q455.435 357.665 455.172 357.131Q454.909 356.597 454.672 356.051Q454.436 355.505 454.226 354.948Q454.016 354.391 453.834 353.825Q453.652 353.258 453.497 352.684Q453.342 352.109 453.216 351.527Q453.089 350.946 452.991 350.359Q452.893 349.772 452.823 349.181Q452.754 348.59 452.713 347.996Q452.672 347.403 452.66 346.808Q452.649 346.213 452.666 345.618Q452.683 345.023 452.729 344.43Q452.775 343.836 452.85 343.246Q452.924 342.655 453.028 342.069Q453.131 341.483 453.263 340.903Q453.394 340.323 453.554 339.749Q453.714 339.176 453.901 338.611Q454.089 338.047 454.303 337.491Q454.518 336.936 454.759 336.392Q455 335.848 455.268 335.317Q455.535 334.785 455.828 334.267Q456.121 333.749 456.439 333.246Q456.757 332.743 457.099 332.256Q457.441 331.769 457.806 331.299Q458.171 330.829 458.558 330.377Q458.946 329.926 459.355 329.493Q459.764 329.061 460.193 328.649Q460.623 328.237 461.072 327.847Q461.521 327.456 461.989 327.088Q462.456 326.72 462.941 326.375Q463.426 326.029 463.927 325.708Q464.428 325.387 464.944 325.091Q465.46 324.794 465.989 324.523Q466.519 324.252 467.062 324.007Q467.604 323.762 468.158 323.544Q468.711 323.326 469.275 323.135Q469.838 322.943 470.411 322.78Q470.983 322.616 471.562 322.481Q472.142 322.345 472.727 322.238Z"/>
	<path fill="#FEFCF7" transform="scale(0.03125 0.03125)" d="M487.099 329.521C488.708 329.476 490.275 329.425 491.798 330.027C494.32 331.025 496.375 333.325 497.409 335.794C498.492 338.381 498.631 341.407 497.429 343.982C496.158 346.705 494.157 347.636 491.444 348.572C489.856 348.596 488.195 348.68 486.646 348.275C484.232 347.643 482.062 345.895 480.873 343.704Q480.65 343.284 480.47 342.843Q480.291 342.402 480.156 341.946Q480.022 341.489 479.934 341.021Q479.846 340.554 479.805 340.079Q479.764 339.605 479.771 339.129Q479.778 338.654 479.833 338.181Q479.888 337.708 479.989 337.243Q480.091 336.778 480.239 336.326C481.393 332.798 483.897 331.057 487.099 329.521Z"/>
	<defs>
		<linearGradient id="gradient_0" gradientUnits="userSpaceOnUse" x1="350.66302" y1="450.83505" x2="344.23492" y2="460.79688">
			<stop offset="0" stop-color="#656962"/>
			<stop offset="1" stop-color="#5A796F"/>
		</linearGradient>
	</defs>
	<path fill="url(#gradient_0)" transform="scale(0.03125 0.03125)" d="M311.753 422.436C315.629 426.871 319.046 431.632 323.067 435.962Q325.575 438.622 328.213 441.153Q330.85 443.685 333.611 446.082Q336.371 448.48 339.247 450.737Q342.123 452.994 345.107 455.105Q348.092 457.216 351.178 459.176Q354.264 461.137 357.443 462.941Q360.623 464.745 363.888 466.389Q367.154 468.033 370.497 469.513C375.134 471.568 392.397 478.257 395.494 480.587C381.337 479.323 357.949 469.933 345.507 462.72C331.055 454.342 316.147 438.942 311.753 422.436Z"/>
	<path fill="#C98300" transform="scale(0.03125 0.03125)" d="M272.237 413.522C273.363 411.669 274.523 409.294 276.008 407.736C278.628 404.988 282.41 405.34 285.903 405.18C283.741 411.07 280.561 416.06 277.174 421.295C292.638 430.022 306.64 441.339 321.227 451.452C310.742 447.121 301.329 440.264 291.432 434.763C284.324 430.813 276.116 427.528 269.422 423.015C270.519 420.915 273.433 416.43 272.536 414.015C272.469 413.835 272.337 413.687 272.237 413.522Z"/>
	<path fill="#0E1013" transform="scale(0.03125 0.03125)" d="M293.721 222.511C310.159 229.262 323.445 244.205 334.203 257.947C337.52 262.184 341.112 266.58 343.371 271.482C333.004 276.741 319.179 291.442 310.975 300.158C307.843 303.585 304.815 307.237 302.087 310.996C299.921 313.982 296.342 321.48 293.736 323.443L292.509 323.132L291.897 322.097C291.721 318.28 294.69 313.923 296.429 310.6C294.528 304.524 293.625 297.955 292.649 291.67C288.458 264.691 289.584 249.598 293.721 222.511Z"/>
	<path fill="#E7D3A7" transform="scale(0.03125 0.03125)" d="M296.77 229.376C312.136 239.099 328.458 255.149 338.163 270.764L329.485 276.832C318.713 285.997 309.368 295.764 300.026 306.357C295.382 285.444 292.634 263.811 295.175 242.386L296.77 229.376Z"/>
	<path fill="#A09D99" transform="scale(0.03125 0.03125)" d="M296.77 229.376C312.136 239.099 328.458 255.149 338.163 270.764L329.485 276.832C326.436 272.273 323.441 267.633 320.112 263.273C315.521 257.259 303.03 243.425 295.175 242.386L296.77 229.376Z"/>
	<path fill="#0E1013" transform="scale(0.03125 0.03125)" d="M361.206 287.606C364.195 287.251 367.309 287.217 370.281 287.725C380.19 289.421 386.825 295.375 392.453 303.324C382.143 298.546 372.529 295.791 361.127 295.997C350.048 297.525 342.306 302.182 332.836 307.819C340.83 297.785 348.484 290.6 361.206 287.606Z"/>
	<path fill="#0E1013" transform="scale(0.03125 0.03125)" d="M465.765 286.156Q468.397 286.138 471.003 286.503C482.564 288.172 491.042 296.443 497.855 305.34C490.708 302.464 484.666 298.058 477.1 295.961C474.166 295.207 471.061 294.7 468.032 294.588C459.017 294.255 450.511 297.377 443.93 303.523C445.101 300.591 446.499 297.755 448.436 295.247C452.867 289.512 458.769 287.062 465.765 286.156Z"/>
	<path fill="#F9C51E" transform="scale(0.03125 0.03125)" d="M579.034 374.708C579.232 367.502 580.358 361.237 585.768 355.943Q586.185 355.538 586.621 355.154Q587.058 354.77 587.513 354.409Q587.968 354.048 588.441 353.71Q588.914 353.372 589.403 353.058Q589.893 352.745 590.397 352.456Q590.902 352.167 591.42 351.905Q591.938 351.642 592.469 351.406Q593 351.169 593.543 350.96Q594.085 350.751 594.637 350.569Q595.189 350.387 595.749 350.234Q596.31 350.08 596.878 349.955Q597.445 349.829 598.018 349.733Q598.591 349.636 599.169 349.569Q599.746 349.501 600.326 349.463Q600.906 349.425 601.487 349.416Q602.068 349.407 602.649 349.427C609.484 349.725 616.159 353.242 620.633 358.364C624.241 362.494 627.126 368.642 626.518 374.226C625.736 381.415 621.62 389.163 619.027 395.899C600.959 442.835 568.58 480.311 529.088 510.731Q525.126 513.824 520.954 516.627C518.8 505.259 515.736 495.167 508.925 485.672C510.038 492.104 511.382 498.621 512.011 505.118C514.467 530.5 516.407 586.654 510.265 609.83C504.131 632.973 492.568 652.452 492.482 677.135C484.476 679.674 477.577 682.617 470.508 687.177C484.863 686.524 506.209 683.42 517.628 693.995C523.583 699.509 525.216 706.762 525.698 714.481Q518.644 714.778 511.586 714.973C511.658 710.183 511.741 705.98 508.256 702.207C504.975 698.654 500.04 697.311 495.471 696.339C499.905 699.384 504.081 701.911 505.192 707.597C505.664 710.016 505.799 712.546 505.891 715.001C493.01 714.967 479.513 715.596 466.711 714.286C462.787 714.496 455.192 715.434 451.824 713.132C450.327 712.11 449.853 708.577 449.66 706.903C449.107 702.105 449.399 696.995 449.272 692.158C448.979 680.964 448.657 669.797 447.345 658.667C451.422 654.802 456.226 651.518 460.584 647.952C470.936 639.483 480.596 629.631 487.779 618.277C487.569 618.373 487.358 618.464 487.15 618.564C483.423 620.359 474.77 629.47 469.841 632.861C444.379 650.376 418.086 652.572 388.558 647.21L388.457 628.081L388.558 610.15C388.699 599.146 388.473 592.089 382.008 582.843C384.429 576.339 387.667 570.436 388.383 563.4C390.589 541.711 375.033 530.094 362.916 514.881C359.437 510.513 347.819 492.66 348.881 487.317C349.046 486.482 349.977 486.204 350.643 485.776L352.829 486.93C358.211 488.643 363.551 490.374 368.635 492.869C374.133 495.568 379.231 498.981 385.132 500.767C400.728 505.489 441.785 505.418 458.164 501.554C465.201 499.894 471.758 496.574 478.143 493.27C479.566 492.534 480.966 491.727 482.443 491.107C485.115 488.66 488.041 486.879 491.151 485.063C506.938 475.829 522.624 464.686 536.851 453.173C544.944 446.624 552.445 438.812 561.318 433.34C565.977 433.319 570.535 433.543 575.166 434.05C571.241 424.805 566.262 417.404 559.35 410.082C564.917 409.658 570.54 409.048 576.125 409.038C572.509 402.434 568.985 395.754 564.92 389.412C576.78 384.255 585.446 379.605 595.345 371.098C589.918 372.711 584.667 374.067 579.034 374.708Z"/>
	<path fill="#FBE585" transform="scale(0.03125 0.03125)" d="M482.443 491.107C485.115 488.66 488.041 486.879 491.151 485.063C495.95 503.913 502.609 537.037 500.258 555.964C498.998 566.102 495.157 576.401 489.925 585.147C479.769 602.123 463.518 612.654 444.492 617.373C425.503 622.082 405.884 619.329 388.558 610.15C388.699 599.146 388.473 592.089 382.008 582.843C384.429 576.339 387.667 570.436 388.383 563.4C390.589 541.711 375.033 530.094 362.916 514.881C359.437 510.513 347.819 492.66 348.881 487.317C349.046 486.482 349.977 486.204 350.643 485.776L352.829 486.93C358.211 488.643 363.551 490.374 368.635 492.869C374.133 495.568 379.231 498.981 385.132 500.767C400.728 505.489 441.785 505.418 458.164 501.554C465.201 499.894 471.758 496.574 478.143 493.27C479.566 492.534 480.966 491.727 482.443 491.107Z"/>
	<path fill="#258EA5" transform="scale(0.03125 0.03125)" d="M352.829 486.93C358.211 488.643 363.551 490.374 368.635 492.869C374.133 495.568 379.231 498.981 385.132 500.767C400.728 505.489 441.785 505.418 458.164 501.554C465.201 499.894 471.758 496.574 478.143 493.27C479.566 492.534 480.966 491.727 482.443 491.107C478.118 500.973 464.608 511.48 455.36 516.545C439.526 525.218 420.386 528.503 402.871 523.336Q399.068 522.227 395.418 520.687Q391.769 519.147 388.321 517.197C378.528 511.705 358.326 496.957 352.829 486.93Z"/>
	<path fill="#C98300" transform="scale(0.03125 0.03125)" d="M489.834 613.933C489.735 615.139 489.407 616.907 488.473 617.784C488.266 617.978 488.01 618.113 487.779 618.277C487.569 618.373 487.358 618.464 487.15 618.564C483.423 620.359 474.77 629.47 469.841 632.861C444.379 650.376 418.086 652.572 388.558 647.21L388.457 628.081C393.818 629.057 398.974 631.161 404.308 632.331C433.07 638.639 465.53 629.484 489.834 613.933Z"/>
	<path fill="#C98300" transform="scale(0.03125 0.03125)" d="M489.834 613.933L490.743 613.253C491.872 614.47 491.975 616.054 491.912 617.682C491.797 620.636 490.377 623.67 489.322 626.421C491.719 623.795 494.012 621.158 496.176 618.337C482.433 645.423 463.347 653.299 460.296 687.56C459.77 693.468 459.303 700.451 461.132 706.175C462.184 709.469 464.078 712.078 466.711 714.286C462.787 714.496 455.192 715.434 451.824 713.132C450.327 712.11 449.853 708.577 449.66 706.903C449.107 702.105 449.399 696.995 449.272 692.158C448.979 680.964 448.657 669.797 447.345 658.667C451.422 654.802 456.226 651.518 460.584 647.952C470.936 639.483 480.596 629.631 487.779 618.277C488.01 618.113 488.266 617.978 488.473 617.784C489.407 616.907 489.735 615.139 489.834 613.933Z"/>
	<path fill="#095071" transform="scale(0.03125 0.03125)" d="M706.512 553.099L760.103 552.985C769.094 552.97 779.457 551.926 788.229 553.596C791.854 554.286 795.316 555.909 797.905 558.581C798.86 559.566 799.713 560.678 800.483 561.812C803.07 566.409 803.322 570.301 801.916 575.369C799.422 584.355 794.995 593.704 791.082 602.165C773.927 639.252 750.703 671.663 720.243 698.974C705.45 700.528 690.091 700.043 675.227 700.005L617.892 699.798L588.402 699.529C581.574 699.488 574.447 699.775 567.673 698.915C565.442 698.631 563.617 697.999 561.858 696.567C559.862 694.943 559.775 693.177 559.582 690.767C558.99 683.38 559.364 570.443 560.354 567.458C560.472 563.555 561.214 559.25 564.195 556.465C566.151 554.637 568.329 553.927 570.928 553.496C578.268 552.28 586.581 552.965 594.034 552.98L638.538 553.173L638.548 562.076C638.73 572.509 638.554 582.97 638.545 593.406C638.54 598.714 637.919 604.859 639.098 610.008C640.537 611.162 642.521 611.482 644.308 611.74C651.866 612.831 660.587 611.985 668.269 612.003C678.515 612.026 689.627 612.945 699.733 611.828C701.777 611.602 703.824 611.292 705.523 610.077C707.77 603.79 706.547 570.363 706.547 561.968L706.512 553.099Z"/>
	<path fill="#1ECEEB" transform="scale(0.03125 0.03125)" d="M706.512 553.099L760.103 552.985C769.094 552.97 779.457 551.926 788.229 553.596C791.854 554.286 795.316 555.909 797.905 558.581C798.86 559.566 799.713 560.678 800.483 561.812C790.852 562.925 780.11 561.981 770.376 561.978L706.547 561.968L706.512 553.099Z"/>
	<path fill="#1ECEEB" transform="scale(0.03125 0.03125)" d="M560.354 567.458C560.472 563.555 561.214 559.25 564.195 556.465C566.151 554.637 568.329 553.927 570.928 553.496C578.268 552.28 586.581 552.965 594.034 552.98L638.538 553.173L638.548 562.076L593.028 561.946C586.056 561.93 573.836 560.862 567.27 562.636C564.32 563.434 562.952 566.549 560.354 567.458Z"/>
	<path fill="#095071" transform="scale(0.03125 0.03125)" d="M664.846 390.715C684.183 389.845 703.651 390.873 723 390.945L754.077 390.975C759.859 390.98 765.808 390.706 771.567 391.157C773.886 391.339 778.274 391.656 779.997 393.164C781.677 394.635 782.44 397.259 782.663 399.382C783.141 403.947 782.881 408.715 782.895 413.314L782.979 438.744C783.145 459.639 784.017 480.634 783.452 501.524C783.378 504.263 783.499 508.4 781.361 510.302C778.309 513.017 772.053 511.817 768.244 511.553Q730.628 511.294 693.011 511.523C680.715 511.591 667.337 512.845 655.216 511.561C653.407 511.369 651.677 510.421 650.246 509.333C648.961 508.357 648.485 507.694 648.308 506.056C647.592 499.418 648.186 492.195 648.241 485.502L648.466 448.81C648.518 439.323 648.648 429.828 648.564 420.341C648.515 414.646 647.958 408.5 648.591 402.845C648.904 400.043 649.739 397.296 651.64 395.151C655.163 391.174 659.933 390.981 664.846 390.715Z"/>
	<path fill="#04162A" transform="scale(0.03125 0.03125)" d="M672.42 412.432C686.397 412.449 761.205 411.201 768.643 413.935C769.402 422.501 768.615 431.783 768.577 440.407L768.428 495.39C759.606 496.989 745.909 495.915 736.493 495.875L672.516 495.731L672.42 412.432Z"/>
	<path fill="#258EA5" transform="scale(0.03125 0.03125)" d="M678.557 418.964L763.017 418.938L762.981 489.51C734.916 489.513 706.787 489.881 678.731 489.312C677.992 466.257 678.667 442.152 678.557 418.964Z"/>
	<path fill="#04162A" transform="scale(0.03125 0.03125)" d="M690.05 441.959L748.961 441.83L748.982 448.456Q728.853 448.535 708.724 448.356C702.804 448.29 696.228 448.825 690.456 447.718C689.749 446.034 690.036 443.768 690.05 441.959Z"/>
	<path fill="#1ECEEB" transform="scale(0.03125 0.03125)" d="M268.86 289.397C269.323 289.87 274.291 308.85 275.498 311.765C272.91 318.769 270.815 325.824 269.708 333.225C266.875 352.164 268.494 361.038 257.418 378.522C251.504 387.858 240.664 400.267 229.413 402.818C239.263 405.814 249.013 409.404 259.135 411.377C252.12 419.155 244.163 423.9 234.813 428.388C255.39 435.562 273.119 444.874 290.883 457.46L289.006 459.348C273.667 474.933 245.324 506.446 245.713 528.775C246.023 546.6 262.229 559.623 273.932 571.092C269.73 572.362 265.701 573.647 261.773 575.629C260.997 576.284 260.228 576.948 259.51 577.668C250.799 586.391 252.881 603.105 252.939 614.28Q253.071 626.708 252.936 639.137C245.943 628.687 240.314 617.48 234.968 606.123C215.498 564.766 205.984 523.302 205.34 477.62C204.56 422.333 218.832 370.009 246.368 322.093C252.839 310.831 259.74 298.774 268.86 289.397Z"/>
	<path fill="#F9C51E" transform="scale(0.03125 0.03125)" d="M306.4 466.247C320.52 474.215 335.48 480.151 350.643 485.776C349.977 486.204 349.046 486.482 348.881 487.317C347.819 492.66 359.437 510.513 362.916 514.881C375.033 530.094 390.589 541.711 388.383 563.4C387.667 570.436 384.429 576.339 382.008 582.843C376.458 576.633 370.016 573.23 362.008 571.198C362.904 565.857 362.89 560.432 361.146 555.258C357.083 543.205 346.658 537.837 336.02 532.559C334.146 527.405 333.014 521.984 331.726 516.659Q329.44 521.302 326.947 525.838C321.875 520.884 315.302 515.442 313.073 508.484C310.833 501.494 313.745 495.241 316.924 489.151C312.334 494.391 307.174 501.112 305.649 508.051C302.922 520.465 317.374 536.916 326.967 543.171C333.912 547.701 342.13 547.574 346.841 555.521C349.412 559.86 348.944 563.939 347.723 568.548C345.328 564.304 344.099 561.529 339.214 559.834C337.664 559.297 336.393 558.995 334.854 559.709C334.68 560.03 334.306 560.979 334.612 561.366C335.026 561.891 336.744 562.736 337.378 563.167C340.988 565.618 341.735 569.381 342.911 573.338C340.662 576.995 337.987 579.446 334.473 581.818C333.676 577.602 332.878 572.642 329.594 569.558C327.945 568.009 325.898 567.356 323.655 567.459C322.35 567.519 320.4 567.698 319.528 568.686C321.771 569.462 324.147 570.495 325.767 572.289C327.581 574.299 328.965 578.13 328.602 580.846C328.434 582.095 327.78 583.073 326.691 583.709C323.843 585.37 319.319 585.137 316.295 584.137C301.549 579.259 269.619 545.62 262.333 531.388C263.64 510.842 291.657 480.544 306.4 466.247Z"/>
	<path fill="#095071" transform="scale(0.03125 0.03125)" d="M273.46 586.915C280.824 587.508 289.364 587.13 295.989 590.715C300.333 593.066 304.339 596.064 308.816 598.169C321.813 604.281 328.613 599.273 340.506 595.141C344.143 593.877 347.266 593.43 350.857 595.156C350.977 595.541 351.113 595.923 351.21 596.314C352.651 602.099 351.671 615.503 351.707 622.193L351.837 650.783C351.849 656.706 352.116 662.807 351.463 668.693C351.186 671.186 350.643 672.794 349.341 674.941L348.985 675.309C347.672 676.645 346.096 678.17 344.218 678.637C338.252 680.123 323.097 678.922 316.32 678.835Q299.523 678.597 282.728 678.95C277.516 673.995 273.034 668.173 268.423 662.655C267.753 650.671 267.898 638.538 267.867 626.534C267.842 616.985 267.569 607.307 267.966 597.773C268.194 592.315 269.573 590.459 273.46 586.915Z"/>
	<path fill="#095071" transform="scale(0.03125 0.03125)" d="M646.231 552.971L699.598 553.015L699.514 561.985C699.52 576.231 700.062 590.738 699.222 604.951C681.459 605.351 663.621 605.048 645.85 605.08C645.451 590.744 645.879 576.247 646.098 561.9L646.231 552.971Z"/>
	<path fill="#1ECEEB" transform="scale(0.03125 0.03125)" d="M646.231 552.971L699.598 553.015L699.514 561.985C681.733 561.89 663.863 562.481 646.098 561.9L646.231 552.971Z"/>
	<path fill="#1ECEEB" transform="scale(0.03125 0.03125)" d="M411.315 665.958C418.793 666.508 426.05 666.35 433.517 665.899C436.415 682.298 435.714 699.505 437.196 716.101L429.875 716.232Q416.53 716.518 403.182 716.349C405.955 701.415 406.869 679.654 411.315 665.958Z"/>
	<defs>
		<linearGradient id="gradient_1" gradientUnits="userSpaceOnUse" x1="368.8602" y1="651.57135" x2="361.35022" y2="715.39441">
			<stop offset="0" stop-color="#DA9200"/>
			<stop offset="1" stop-color="#FFD61C"/>
		</linearGradient>
	</defs>
	<path fill="url(#gradient_1)" transform="scale(0.03125 0.03125)" d="M388.869 651.114C391.621 654.768 394.564 657.367 398.207 660.096C394.209 674.806 396.148 699.697 389.603 711.39C388.222 712.354 386.689 713.561 385.084 714.099C378.646 716.258 357.11 715.417 349.206 715.461C347.404 709.453 345.489 703.407 339.492 700.302C337.314 699.175 335.061 698.519 332.604 698.739C331.66 698.631 330.792 697.971 329.967 697.506C332.552 695.775 347.943 697.393 352.384 697.572C360.643 697.216 371.883 699.447 379.458 695.804C383.825 693.705 386.651 689.751 388.255 685.274C389.899 674.29 389.048 662.232 388.869 651.114Z"/>
	<path fill="#C98300" transform="scale(0.03125 0.03125)" d="M388.255 685.274C389.751 690.364 387.32 698.282 385.11 702.982C374.947 697.399 371.731 697.959 360.657 698.028C357.999 698.045 354.994 698.109 352.384 697.572C360.643 697.216 371.883 699.447 379.458 695.804C383.825 693.705 386.651 689.751 388.255 685.274Z"/>
	<path fill="#1ECEEB" transform="scale(0.03125 0.03125)" d="M683.523 525.244L730.683 525.17L733.92 539.068L713.75 539.025L662.46 538.997Q663.63 532.178 664.721 525.345L683.523 525.244Z"/>
	<path fill="#095071" transform="scale(0.03125 0.03125)" d="M362.646 587.207C363.273 587.292 363.879 587.372 364.486 587.557C368.089 588.655 371.43 591.417 373.164 594.75C373.913 596.189 374.098 597.376 374.218 598.971C374.883 607.808 375.003 672.341 373.431 677.328C371.475 678.644 370.258 678.956 367.978 678.781C366.8 678.059 366.485 677.921 365.98 676.555C364.43 672.358 365.35 665.091 365.355 660.515L365.43 616.61C365.45 608.997 366.199 600.7 365.075 593.203C364.731 590.903 363.811 589.196 362.646 587.207Z"/>
	<path fill="#E7D3A7" transform="scale(0.03125 0.03125)" d="M465.379 256.525C471.494 247.628 483.482 231.381 493.287 226.693L493.952 226.947C494.746 228.991 494.538 231.177 494.526 233.339C493.783 248.002 491.878 262.732 491.402 277.376Q486.531 272.408 481.23 267.903Q475.928 263.398 470.24 259.392C468.515 258.662 466.951 257.538 465.379 256.525Z"/>
	<path fill="#C08D69" transform="scale(0.03125 0.03125)" d="M465.379 256.525C471.494 247.628 483.482 231.381 493.287 226.693L493.952 226.947C494.746 228.991 494.538 231.177 494.526 233.339C487.51 236.778 472.959 252.014 470.24 259.392C468.515 258.662 466.951 257.538 465.379 256.525Z"/>
	<path fill="#095071" transform="scale(0.03125 0.03125)" d="M630.708 522.1L636.011 521.794L635.996 539.163L609.375 538.914L603.877 538.886Q604.458 537.778 605.131 536.724C610.409 528.476 621.564 524.094 630.708 522.1Z"/>
	<path fill="#095071" transform="scale(0.03125 0.03125)" d="M745.265 529.427C754.537 529.949 773.066 531.562 780.134 538.45L747.191 539.1C746.655 535.867 745.91 532.641 745.265 529.427Z"/>
	<path fill="#1ECEEB" transform="scale(0.03125 0.03125)" d="M296.793 694.569C302.922 694.44 309.068 694.5 315.2 694.472C313.858 698.407 312.88 701.647 313.26 705.887L313.21 707.031C309.647 706.257 299.82 697.336 296.793 694.569Z"/>
	<path fill="#F9C51E" transform="scale(0.03125 0.03125)" d="M329.967 697.506C330.792 697.971 331.66 698.631 332.604 698.739C333.392 699.334 334.186 699.943 334.903 700.623C337.285 702.884 339.587 708.345 339.398 711.665C339.32 713.045 338.976 713.466 337.923 714.274C334.777 714.451 332.137 711.576 329.855 709.7C329.087 705.3 329.304 701.862 329.967 697.506Z"/>
	<path fill="#1ECEEB" transform="scale(0.03125 0.03125)" d="M643.021 521.667C645.125 522.024 647.176 522.852 649.194 523.539L649.237 538.985C647.187 539.137 645.066 539.059 643.006 539.09L643.021 521.667Z"/>
	<path fill="#04162A" transform="scale(0.03125 0.03125)" d="M392.071 797.68C410.568 803.039 429.555 807.899 448.444 811.63C456.155 813.153 464.097 813.49 471.763 815.189C477.097 823.016 479.818 832.541 484.919 840.631Q492.434 829.129 500.84 818.262C507.844 817.971 515.141 818.287 522.124 818.89C515.912 827.999 494.53 853.384 492.54 862.754C490.992 870.042 491.186 882.222 490.668 890.033C484.803 889.965 478.436 889.961 472.668 888.947C471.778 887.952 472.038 887.088 471.994 885.795C472.472 877.978 474.294 867.124 473.156 859.667C472.266 853.833 456.754 827.445 452.694 820.919C451.961 823.344 451.438 825.857 450.838 828.319Q439.331 826.123 427.879 823.655C422.751 840.424 419.445 857.907 414.934 874.892C408.64 873.874 402.272 872.712 396.096 871.128C400.951 854.108 404.506 836.756 409.055 819.643C401.845 816.609 394.139 814.9 387.026 811.634C388.653 806.965 390.384 802.328 392.071 797.68Z"/>
	<path fill="#04162A" transform="scale(0.03125 0.03125)" d="M265.658 728.844C277.194 735.231 289.77 742.447 299.073 751.856C305.213 758.067 309.031 765.917 308.861 774.782C308.674 784.51 304.488 794.637 297.39 801.339C290.38 807.958 281.815 810.036 272.379 809.818C255.917 808.361 238.988 795.472 227.748 784.206C241.264 766.471 251.571 746.136 265.658 728.844Z"/>
	<path fill="#F9C51E" transform="scale(0.03125 0.03125)" d="M272.759 752.764C275.57 753.61 278.855 756.049 281.101 757.956C285.198 761.432 288.435 766.043 288.788 771.544C289.117 776.675 286.957 782.028 283.478 785.76C280.041 789.446 275.847 791.196 270.879 791.356C263.831 790.201 259.114 787.203 253.298 783.23C259.181 772.825 265.31 762.137 272.759 752.764Z"/>
	<path fill="#04162A" transform="scale(0.03125 0.03125)" d="M630.475 798.655C631.924 798.466 633.54 798.395 635.002 798.46Q635.575 798.481 636.147 798.531Q636.718 798.582 637.286 798.662Q637.854 798.742 638.417 798.851Q638.98 798.961 639.536 799.099Q640.093 799.238 640.642 799.405Q641.19 799.572 641.73 799.767Q642.269 799.963 642.797 800.186Q643.326 800.409 643.842 800.659Q644.358 800.91 644.86 801.187Q645.362 801.463 645.85 801.766Q646.337 802.068 646.808 802.396Q647.279 802.723 647.732 803.074Q648.186 803.426 648.62 803.8Q649.055 804.175 649.469 804.571Q649.883 804.968 650.277 805.385Q650.67 805.803 651.041 806.24C655.448 811.449 657.33 818.814 656.679 825.549C656.041 832.149 653.115 836.622 648.121 840.701Q660.469 849.289 672.162 858.75C666.098 861.404 659.582 863.126 653.364 865.418C646.953 861.081 638.228 854.007 631.304 851.175C629.389 850.392 628.439 850.972 626.675 851.735C628.161 858.74 630.271 865.734 632.029 872.685C626.272 874.837 620.304 876.521 614.435 878.345C607.905 855.257 599.626 832.567 592.864 809.522C605.383 806.106 617.668 800.868 630.475 798.655Z"/>
	<path fill="#F9C51E" transform="scale(0.03125 0.03125)" d="M627.837 816.1C630.082 815.918 632.202 815.848 634.318 816.748C636.136 817.522 637.461 818.707 638.145 820.598C639.023 823.028 638.306 826.153 637.168 828.373C634.76 833.069 630.865 834.473 626.195 836.039L621.992 837.239C619.702 831.732 617.566 825.858 616.066 820.088C619.906 818.035 623.575 816.911 627.837 816.1Z"/>
	<path fill="#04162A" transform="scale(0.03125 0.03125)" d="M330.573 769.876C336.276 772.471 341.873 775.389 347.5 778.151C344.153 786.265 340.542 794.213 336.846 802.173C333.697 808.954 330.115 815.746 328.246 823.013Q328.435 823.801 328.641 824.585C329.685 828.505 331.67 831.758 335.292 833.786C338.235 835.434 341.557 836.356 344.856 835.239C347.812 834.238 350.142 832.009 351.877 829.476C357.512 821.253 364.802 798.857 369.559 788.51Q378.678 792.323 387.692 796.38L383.403 805.817Q379.242 814.894 375.226 824.037C370.387 834.981 366.387 846.753 354.389 851.76C346.522 855.044 337.029 854.636 329.271 851.237C321.039 847.631 313.743 840.504 310.658 831.989Q310.073 830.402 309.698 828.754Q309.323 827.105 309.163 825.422Q309.003 823.739 309.061 822.049Q309.119 820.359 309.395 818.691C311.058 807.98 325.195 780.933 330.573 769.876Z"/>
	<path fill="#04162A" transform="scale(0.03125 0.03125)" d="M753.752 725.836C757.524 728.522 760.847 732.375 764.104 735.67C755.876 744.006 746.575 751.074 738.117 759.136C740.176 761.826 742.316 764.46 744.421 767.115C751.475 761.509 759.039 755.001 764.973 748.246C768.766 751.892 772.366 755.757 776.022 759.54C768.775 766.268 760.765 772.19 753.681 779.072C756.27 782.781 759.419 786.066 762.53 789.332C771.545 783.283 779.645 776.059 787.902 769.039L792.831 775.048C794.652 777.1 796.571 779.027 798.517 780.96C785.53 792.649 771.638 803.555 758.048 814.535C742.757 796.147 727.178 778.008 712.269 759.308L753.752 725.836Z"/>
	<path fill="#04162A" transform="scale(0.03125 0.03125)" d="M703.028 764.925C704.497 765.699 710.4 775.661 711.793 777.586C702.862 782.892 693.365 787.459 684.279 792.525C686.613 796.344 688.866 800.219 691.153 804.068C698.779 801.368 706.762 796.702 714.217 793.302C716.691 796.588 718.925 800.04 721.192 803.47Q709.79 809.542 698.986 816.622C700.827 820.159 703.111 823.472 705.283 826.813Q718.868 820.771 732.313 814.422Q735.546 819.215 738.636 824.101L739.873 826.528C739.788 826.832 739.78 827.169 739.618 827.441C739.15 828.229 699.226 849.162 695.58 851.225C684.588 829.685 671.063 809.415 659.899 787.976C673.89 779.669 688.824 772.882 703.028 764.925Z"/>
	<path fill="#04162A" transform="scale(0.03125 0.03125)" d="M582.258 811.185L583.124 811.233C584.771 813.562 585.26 823.359 585.688 826.803C575.557 829.618 563.907 830.153 553.433 831.127C553.511 836.376 554.127 841.676 554.588 846.907Q568.452 845.317 582.279 843.427Q583.02 851.442 583.533 859.475L556.295 862.293C556.562 867.491 557.332 872.709 557.923 877.881C558.133 881.212 558.615 884.555 558.996 887.873C552.851 888.488 546.769 889.224 540.668 890.185C539.097 881.158 538.502 871.757 537.404 862.649C535.641 848.038 533.581 833.401 532.387 818.731C538.767 817.357 545.446 816.772 551.917 815.849Q567.102 813.611 582.258 811.185Z"/>
</svg>
